<svg width="89.000000" height="91.000000" viewBox="0 0 89 91" fill="none" xmlns="http://www.w3.org/2000/svg" xmlns:xlink="http://www.w3.org/1999/xlink">
	<desc>
			Created with Pixso.
	</desc>
	<defs>
		<clipPath id="clip83_278">
			<rect id="logo_EdSpase" width="89.000000" height="91.000000" fill="white" fill-opacity="0"/>
		</clipPath>
	</defs>
	<g clip-path="url(#clip83_278)">
		<path id="Vector" d="M12.7593 41.8635L23.0037 41.8635L23.0037 44.9523L16.084 44.9523L16.084 47.7919L22.6245 47.7919L22.6245 50.8865L16.084 50.8865L16.084 53.9811L23.3882 53.9811L23.3882 57.0756L12.7593 57.0756L12.7593 41.8635Z" fill="#F3F7EF" fill-opacity="1.000000" fill-rule="nonzero"/>
		<path id="Vector" d="M26.0527 41.8635L31.0312 41.8635C32.1919 41.8563 33.3489 41.9926 34.4768 42.2692C35.5022 42.5135 36.4688 42.9628 37.3191 43.5905C38.1414 44.2152 38.803 45.03 39.2485 45.9664C39.7532 47.0776 39.9968 48.2914 39.9607 49.5131C39.9836 50.636 39.7476 51.7489 39.2715 52.764C38.8262 53.6791 38.1895 54.4857 37.4053 55.1284C36.6016 55.7793 35.6841 56.2726 34.7007 56.583C33.6599 56.9122 32.5754 57.0784 31.4849 57.0756L26.0586 57.0756L26.0527 41.8635ZM29.3718 53.9811L31.0945 53.9811C31.8152 53.9855 32.5339 53.9058 33.2363 53.7434C33.8582 53.606 34.4448 53.3395 34.959 52.9611C35.4556 52.5848 35.8506 52.0887 36.1074 51.5182C36.4019 50.8312 36.543 50.0873 36.521 49.3392C36.5366 48.6664 36.395 47.9993 36.1074 47.3921C35.8438 46.8568 35.4604 46.3906 34.9878 46.0302C34.4941 45.6583 33.9348 45.385 33.3398 45.2247C32.6912 45.0419 32.0205 44.9502 31.3472 44.9524L29.3889 44.9524L29.3718 53.9811Z" fill="#F3F7EF" fill-opacity="1.000000" fill-rule="nonzero"/>
		<path id="Vector" d="M20.0923 67.0663C19.8037 66.7113 19.4214 66.446 18.9897 66.3014C18.5701 66.1462 18.1274 66.064 17.6804 66.058C17.4312 66.059 17.1826 66.088 16.9397 66.1449C16.6875 66.1996 16.4438 66.2893 16.2161 66.4115C15.99 66.5242 15.7932 66.6888 15.6418 66.8925C15.4985 67.108 15.4243 67.363 15.4294 67.6227C15.4189 67.8278 15.4604 68.0322 15.5498 68.2167C15.6394 68.4011 15.7737 68.5597 15.9404 68.6774C16.3367 68.9485 16.77 69.1593 17.2268 69.3032C17.7493 69.4713 18.3064 69.6451 18.9036 69.819C19.4907 69.9851 20.0527 70.2307 20.5745 70.5492C21.094 70.8647 21.5342 71.2971 21.8608 71.8125C22.2302 72.4592 22.4077 73.1995 22.3718 73.9451C22.3901 74.7101 22.2288 75.4686 21.9011 76.1588C21.603 76.7703 21.1709 77.3054 20.6377 77.7234C20.0845 78.1504 19.4546 78.4652 18.783 78.6506C18.0593 78.8528 17.3115 78.9542 16.5608 78.952C15.6326 78.9614 14.7097 78.8085 13.833 78.5C12.9622 78.1786 12.165 77.6816 11.4902 77.0397L13.856 74.4144C14.1934 74.8694 14.6348 75.2352 15.1423 75.4807C15.895 75.8566 16.7544 75.955 17.5713 75.7589C17.8328 75.6993 18.0842 75.6018 18.3179 75.4691C18.5286 75.3475 18.7092 75.1791 18.8462 74.9766C18.9944 74.7689 19.0747 74.5198 19.0759 74.2638C19.082 74.054 19.0378 73.8458 18.9468 73.6571C18.8557 73.4683 18.7207 73.3047 18.5532 73.1801C18.1506 72.8954 17.7073 72.6746 17.2383 72.5253C16.71 72.3398 16.1357 72.1466 15.5156 71.9458C14.9136 71.7653 14.3352 71.5123 13.793 71.1924C13.2712 70.8792 12.8242 70.4537 12.4836 69.9464C12.1111 69.3346 11.929 68.624 11.9612 67.9066C11.9446 67.1609 12.1101 66.4225 12.4434 65.7566C12.7544 65.1553 13.1892 64.6277 13.7183 64.2094C14.2683 63.783 14.8938 63.4663 15.5615 63.2764C16.2605 63.0671 16.9858 62.9617 17.7148 62.9634C18.5513 62.9615 19.3833 63.0846 20.1841 63.3285C20.98 63.5724 21.7131 63.9899 22.3318 64.5513L20.0923 67.0663Z" fill="#F3F7EF" fill-opacity="1.000000" fill-rule="nonzero"/>
		<path id="Vector" d="M24.8584 63.3518L30.457 63.3518C31.2012 63.347 31.9438 63.4189 32.6736 63.5662C33.3237 63.6874 33.9429 63.9397 34.4939 64.308C35.0186 64.6652 35.4434 65.152 35.7285 65.7219C36.0566 66.424 36.2141 67.1947 36.188 67.9705C36.2104 68.7366 36.0654 69.4984 35.7629 70.2015C35.5063 70.7722 35.1113 71.2684 34.6145 71.6445C34.0833 72.0182 33.4812 72.2766 32.8459 72.4037C32.1174 72.5593 31.3743 72.6351 30.6294 72.6296L28.2004 72.6296L28.2004 78.5638L24.8813 78.5638L24.8584 63.3518ZM28.1775 69.7959L30.394 69.7959C30.6833 69.7969 30.9719 69.7677 31.2554 69.709C31.5193 69.6582 31.7722 69.5601 32.0017 69.4192C32.2251 69.2743 32.4087 69.075 32.5359 68.8397C32.678 68.5647 32.7473 68.2573 32.7368 67.9473C32.751 67.6138 32.6584 67.2847 32.4727 67.0084C32.2922 66.7734 32.0576 66.5864 31.7893 66.4637C31.4968 66.33 31.1846 66.2457 30.8647 66.2145C30.5386 66.1805 30.2109 66.1632 29.8828 66.1624L28.1602 66.1624L28.1775 69.7959Z" fill="#F3F7EF" fill-opacity="1.000000" fill-rule="nonzero"/>
		<path id="Vector" d="M41.6604 63.3518L44.4053 63.3518L50.9629 78.5638L47.2131 78.5638L45.9153 75.3418L40.064 75.3418L38.8064 78.5638L35.1543 78.5638L41.6604 63.3518ZM42.9351 67.7734L41.1033 72.5254L44.7898 72.5254L42.9351 67.7734Z" fill="#F3F7EF" fill-opacity="1.000000" fill-rule="nonzero"/>
		<path id="Vector" d="M62.3328 67.3098C62.0073 66.9132 61.5969 66.5962 61.1326 66.3827C60.6099 66.1598 60.0461 66.0511 59.4788 66.064C58.8914 66.0576 58.3093 66.1779 57.7717 66.4167C57.2339 66.6556 56.7529 67.0074 56.3608 67.449C55.959 67.9037 55.6487 68.4332 55.4478 69.0078C55.0037 70.2772 55.0037 71.6617 55.4478 72.931C55.6499 73.4973 55.9558 74.0203 56.3494 74.4725C56.7244 74.9071 57.186 75.2567 57.7043 75.4983C58.2278 75.743 58.7986 75.8678 59.3755 75.8634C60.0051 75.8751 60.6274 75.7256 61.1843 75.4287C61.7092 75.1444 62.1553 74.7321 62.4819 74.2291L65.2498 76.3154C64.6387 77.1941 63.7979 77.8843 62.8208 78.309C61.8694 78.7339 60.8408 78.955 59.8003 78.958C58.6895 78.9623 57.5869 78.766 56.5444 78.3784C55.5847 78.031 54.7068 77.4863 53.9663 76.7791C53.2314 76.0665 52.6543 75.2056 52.2722 74.2523C51.4607 72.1224 51.4607 69.7644 52.2722 67.6344C52.6558 66.6819 53.2327 65.8212 53.9663 65.1078C54.7097 64.4043 55.5869 63.8602 56.5444 63.5083C57.5869 63.1207 58.6895 62.9244 59.8003 62.9288C60.2468 62.9316 60.6924 62.9705 61.1326 63.0447C61.5974 63.1254 62.053 63.2515 62.4937 63.4214C62.949 63.5968 63.3809 63.8284 63.7798 64.111C64.2004 64.4036 64.574 64.7592 64.8882 65.1656L62.3328 67.3098Z" fill="#F3F7EF" fill-opacity="1.000000" fill-rule="nonzero"/>
		<path id="Vector" d="M67.1907 63.3518L77.4292 63.3518L77.4292 66.4406L70.5098 66.4406L70.5098 69.2802L77.0732 69.2802L77.0732 72.3748L70.5098 72.3748L70.5098 75.4692L77.814 75.4692L77.814 78.5638L67.1907 78.5638L67.1907 63.3518Z" fill="#F3F7EF" fill-opacity="1.000000" fill-rule="nonzero"/>
		<path id="Vector" d="M89 91L-0.00585938 91L-0.00585938 0.017334L89 0.017334L89 91ZM2.33691 88.6414L86.6628 88.6414L86.6628 2.36438L2.33691 2.36438L2.33691 88.6414Z" fill="#F3F7EF" fill-opacity="1.000000" fill-rule="nonzero"/>
		<path id="Vector" d="M72.5425 36.3292L66.2891 29.9836L60.0415 36.3292L60.0415 1.18213L72.5425 1.18213L72.5425 36.3292Z" fill="#F3F7EF" fill-opacity="1.000000" fill-rule="nonzero"/>
	</g>
</svg>
