<svg width="78.000000" height="71.000000" viewBox="0 0 78 71" fill="none" xmlns="http://www.w3.org/2000/svg" xmlns:xlink="http://www.w3.org/1999/xlink">
	<desc>
			Created with Pixso.
	</desc>
	<defs>
		<clipPath id="clip81_92">
			<rect id="Frame" width="78.000000" height="71.000000" fill="white" fill-opacity="0"/>
		</clipPath>
	</defs>
	<rect id="Frame" width="78.000000" height="71.000000" fill="#FFFFFF" fill-opacity="0"/>
	<g clip-path="url(#clip81_92)">
		<path id="Vector" d="M75.7018 44.3286C76.5423 44.3286 77.2236 45.0058 77.2236 45.8412L77.2236 55.8738C77.2236 56.7092 76.5423 57.3864 75.7018 57.3864L65.6082 57.3864C64.7678 57.3864 64.0864 56.7092 64.0864 55.8738L64.0864 45.8412C64.0864 45.0058 64.7678 44.3286 65.6082 44.3286L75.7018 44.3286Z" stroke="#F3F7EF" stroke-opacity="1.000000" stroke-width="2.000000"/>
		<path id="Vector" d="M75.7018 15.1106C76.5423 15.1106 77.2236 15.7878 77.2236 16.6232L77.2236 38.6641C77.2236 39.4995 76.5423 40.1767 75.7018 40.1767L65.6082 40.1767C64.7678 40.1767 64.0864 39.4995 64.0864 38.6641L64.0864 16.6232C64.0864 15.7878 64.7678 15.1106 65.6082 15.1106L75.7018 15.1106Z" stroke="#F3F7EF" stroke-opacity="1.000000" stroke-width="2.000000" stroke-dasharray="2 2"/>
		<path id="Vector" d="M68.9779 9.52319L63.5118 9.52319" stroke="#F3F7EF" stroke-opacity="1.000000" stroke-width="2.000000"/>
		<path id="Vector" d="M74.4439 5.00098L63.5118 5.00098" stroke="#F3F7EF" stroke-opacity="1.000000" stroke-width="2.000000"/>
		<path id="Vector" d="M19.9077 9.52319C20.7482 9.52319 21.4295 10.2004 21.4295 11.0358L21.4295 28.5543C21.4295 29.3897 20.7482 30.0669 19.9077 30.0669L2.29829 30.0669C1.45782 30.0669 0.776489 29.3897 0.776489 28.5543L0.776489 11.0358C0.776489 10.2004 1.45782 9.52319 2.29829 9.52319L19.9077 9.52319Z" stroke="#F3F7EF" stroke-opacity="1.000000" stroke-width="2.000000"/>
		<path id="Vector" d="M26.6004 61.9243C26.6004 62.3336 26.4368 62.7262 26.1456 63.0156C25.8543 63.3051 25.4594 63.4677 25.0475 63.4677L2.25159 63.4677C1.83974 63.4677 1.44476 63.3051 1.15355 63.0156C0.862335 62.7262 0.69873 62.3336 0.69873 61.9243L0.69873 52.864C0.69873 52.4547 0.862335 52.0621 1.15355 51.7726C1.44476 51.4832 1.83974 51.3206 2.25159 51.3206L25.0475 51.3206C25.4594 51.3206 25.8543 51.4832 26.1456 51.7726C26.4368 52.0621 26.6004 52.4547 26.6004 52.864L26.6004 61.9243Z" stroke="#F3F7EF" stroke-opacity="1.000000" stroke-width="2.000000"/>
		<path id="Vector" d="M57.1296 68.793C57.1296 69.1736 56.9774 69.5388 56.7066 69.808C56.4358 70.0771 56.0684 70.2284 55.6854 70.2284L18.3237 70.2284C17.9406 70.2284 17.5733 70.0771 17.3025 69.808C17.0317 69.5388 16.8795 69.1736 16.8795 68.793L16.8795 63.437L25.0786 63.437C25.4904 63.437 25.8854 63.2744 26.1766 62.985C26.4678 62.6955 26.6315 62.3029 26.6315 61.8936L26.6315 52.8334C26.6315 52.424 26.4678 52.0314 26.1766 51.742C25.8854 51.4525 25.4904 51.2899 25.0786 51.2899L16.8795 51.2899L16.8795 30.0825L19.9076 30.0825C20.3194 30.0825 20.7144 29.9199 21.0056 29.6304C21.2968 29.3409 21.4604 28.9484 21.4604 28.539L21.4604 11.0359C21.4604 10.6266 21.2968 10.234 21.0056 9.94455C20.7144 9.65509 20.3194 9.49246 19.9076 9.49246L16.8795 9.49246L16.8795 2.17639C16.8795 1.79568 17.0317 1.4306 17.3025 1.16141C17.5733 0.892212 17.9406 0.740967 18.3237 0.740967L55.6854 0.740967C55.8777 0.740936 56.0681 0.779114 56.2453 0.85318C56.4226 0.927216 56.5832 1.03568 56.7177 1.17224C56.8522 1.30884 56.9579 1.47073 57.0287 1.64847C57.0994 1.8262 57.1337 2.0162 57.1296 2.20728L57.1296 68.793Z" stroke="#F3F7EF" stroke-opacity="1.000000" stroke-width="2.000000"/>
		<path id="Vector" d="M57.1296 58.0039L26.6005 58.0039" stroke="#F3F7EF" stroke-opacity="1.000000" stroke-width="2.000000"/>
		<path id="Vector" d="M57.1296 9.52319L19.9076 9.52319" stroke="#F3F7EF" stroke-opacity="1.000000" stroke-width="2.000000"/>
		<path id="Vector" d="M39.0992 64.2994C38.9853 64.5728 38.8183 64.8213 38.6077 65.0305C38.3972 65.2398 38.1473 65.4057 37.8722 65.519C37.5972 65.6322 37.3023 65.6905 37.0046 65.6905C36.4033 65.6905 35.8266 65.4531 35.4015 65.0305C34.9763 64.6079 34.7374 64.0347 34.7374 63.437C34.7374 62.8394 34.9763 62.2662 35.4015 61.8436C35.8266 61.421 36.4033 61.1836 37.0046 61.1836C37.3023 61.1836 37.5972 61.2418 37.8722 61.355C38.1473 61.4683 38.3972 61.6343 38.6077 61.8436C38.8183 62.0529 38.9853 62.3012 39.0992 62.5746C39.2131 62.8481 39.2718 63.1411 39.2718 63.437C39.2718 63.7329 39.2131 64.026 39.0992 64.2994Z" stroke="#F3F7EF" stroke-opacity="1.000000" stroke-width="2.000000"/>
		<path id="Vector" d="M37.0045 34.3734C36.3711 34.3734 35.7438 34.2491 35.1588 34.0077C34.5737 33.7663 34.0423 33.4124 33.5951 32.9664C33.1479 32.5205 32.7937 31.9912 32.5527 31.4089C32.3117 30.8266 32.1887 30.2028 32.1907 29.5731C32.1907 28.9448 32.3152 28.3226 32.5571 27.7421C32.7991 27.1616 33.1536 26.6341 33.6006 26.1898C34.0476 25.7455 34.5783 25.393 35.1624 25.1526C35.7464 24.9121 36.3724 24.7884 37.0045 24.7884C37.638 24.7863 38.2657 24.9086 38.8515 25.1482C39.4373 25.3877 39.9698 25.7398 40.4185 26.1843C40.8672 26.6288 41.2231 27.157 41.466 27.7386C41.7089 28.3201 41.8339 28.9435 41.8339 29.5731C41.8339 30.8462 41.3251 32.0672 40.4194 32.9674C39.5138 33.8676 38.2854 34.3734 37.0045 34.3734C34.9865 34.3734 33.0511 35.1701 31.6242 36.5885C30.1972 38.0068 29.3956 39.9305 29.3956 41.9364C28.067 40.8383 26.9984 39.4627 26.2656 37.9074C25.5329 36.3521 25.1541 34.6553 25.1563 32.9379C25.1563 29.8145 26.4046 26.8191 28.6265 24.6105C30.8485 22.4019 33.8622 21.1611 37.0045 21.1611C38.5611 21.1591 40.1027 21.4623 41.5411 22.0535C42.9795 22.6446 44.2865 23.512 45.3871 24.606C46.4877 25.7 47.3604 26.9991 47.9551 28.4288C48.5498 29.8585 48.8549 31.3908 48.8528 32.9379C48.8548 34.6537 48.4774 36.3491 47.7476 37.904C47.0177 39.4589 45.9531 40.8354 44.6291 41.9364C44.6291 40.9419 44.4317 39.9572 44.0484 39.0386C43.665 38.12 43.1032 37.2855 42.395 36.583C41.6868 35.8805 40.8461 35.3239 39.9211 34.9447C38.9962 34.5655 38.0051 34.3714 37.0045 34.3734Z" stroke="#F3F7EF" stroke-opacity="1.000000" stroke-width="2.000000"/>
		<path id="Vector" d="M40.4194 32.9673C39.5138 33.8676 38.2854 34.3734 37.0045 34.3734C36.3711 34.3734 35.7438 34.2491 35.1588 34.0077C34.5737 33.7663 34.0423 33.4124 33.5951 32.9664C33.1479 32.5205 32.7937 31.9912 32.5527 31.4089C32.3117 30.8266 32.1887 30.2028 32.1907 29.5731C32.1907 28.3041 32.6979 27.0871 33.6006 26.1898C34.5034 25.2924 35.7278 24.7884 37.0045 24.7884C37.638 24.7863 38.2657 24.9086 38.8515 25.1481C39.4373 25.3877 39.9698 25.7398 40.4185 26.1843C40.8672 26.6288 41.2231 27.157 41.466 27.7385C41.7089 28.32 41.8339 28.9435 41.8339 29.5731C41.8339 30.8462 41.3251 32.0671 40.4194 32.9673Z" stroke="#F3F7EF" stroke-opacity="1.000000" stroke-width="2.000000"/>
		<path id="Vector" d="M37.0046 44.6991C34.2202 44.6967 31.5259 43.7184 29.3956 41.9363C29.3956 39.9305 30.1973 38.0067 31.6243 36.5884C33.0512 35.17 34.9866 34.3733 37.0046 34.3733C38.0052 34.3713 38.9963 34.5654 39.9212 34.9446C40.8462 35.3237 41.6868 35.8804 42.3951 36.5829C43.1033 37.2854 43.6651 38.1199 44.0485 39.0385C44.4318 39.9571 44.6292 40.9418 44.6292 41.9363C42.4934 43.7195 39.7939 44.6976 37.0046 44.6991Z" stroke="#F3F7EF" stroke-opacity="1.000000" stroke-width="2.000000"/>
	</g>
</svg>
