<svg width="94.000000" height="68.000000" viewBox="0 0 94 68" fill="none" xmlns="http://www.w3.org/2000/svg" xmlns:xlink="http://www.w3.org/1999/xlink">
	<desc>
			Created with Pixso.
	</desc>
	<defs>
		<clipPath id="clip79_4162">
			<rect id="Frame" width="94.000000" height="68.000000" fill="white" fill-opacity="0"/>
		</clipPath>
	</defs>
	<rect id="Frame" width="94.000000" height="68.000000" fill="#FFFFFF" fill-opacity="0"/>
	<g clip-path="url(#clip79_4162)">
		<path id="Vector" d="M69.08 25.0519L64.2053 25.0519L62.9974 23.8473C62.882 23.7315 62.7452 23.6399 62.5947 23.5776C62.4441 23.5153 62.283 23.4837 62.1202 23.4844L53.1617 23.4844C52.9988 23.4825 52.8371 23.5134 52.6862 23.5754C52.5353 23.6374 52.3982 23.7294 52.283 23.8457C52.1678 23.962 52.0767 24.1003 52.0153 24.2527C51.9538 24.405 51.9232 24.5682 51.925 24.7326L51.925 44.1529L2.27197 44.1529C2.06873 44.151 1.86719 44.1897 1.67883 44.2669C1.49048 44.3441 1.31921 44.4582 1.1748 44.6026C1.0304 44.747 0.915649 44.9189 0.837524 45.1083C0.759277 45.2976 0.718994 45.5008 0.718994 45.706L0.718994 2.29332C0.718994 1.87758 0.88269 1.47887 1.17383 1.1849C1.46509 0.890924 1.86011 0.72583 2.27197 0.72583L67.5414 0.72583C67.7446 0.725821 67.9459 0.766383 68.1335 0.845337C68.3212 0.924291 68.4914 1.04003 68.6345 1.18578C68.7775 1.33154 68.8906 1.50445 68.967 1.69455C69.0435 1.88465 69.0819 2.08816 69.08 2.29332L69.08 25.0519Z" stroke="#9E00FF" stroke-opacity="1.000000" stroke-width="2.000000"/>
		<path id="Vector" d="M51.9539 52.4116L2.30078 52.4116C2.09753 52.4135 1.89587 52.3747 1.70752 52.2976C1.51917 52.2204 1.3479 52.1062 1.20349 51.9618C1.05908 51.8174 0.944458 51.6456 0.866333 51.4562C0.788086 51.2668 0.747803 51.0637 0.747803 50.8585L0.747803 45.7349C0.747803 45.5297 0.788086 45.3266 0.866333 45.1373C0.944458 44.9479 1.05908 44.776 1.20349 44.6316C1.3479 44.4872 1.51917 44.3731 1.70752 44.2959C1.89587 44.2187 2.09753 44.1799 2.30078 44.1818L51.9539 44.1818L51.9539 52.4116Z" stroke="#9E00FF" stroke-opacity="1.000000" stroke-width="2.000000"/>
		<path id="Vector" d="M93.281 57.4916C93.281 57.8766 93.1295 58.2457 92.8599 58.5179C92.5902 58.7901 92.2244 58.9431 91.843 58.9431L53.248 58.9431C52.8666 58.9431 52.5009 58.7901 52.2312 58.5179C51.9615 58.2457 51.81 57.8766 51.81 57.4916L51.81 24.8342C51.8275 24.4742 51.977 24.1336 52.2295 23.8787C52.482 23.6238 52.8194 23.4729 53.1761 23.4553L61.962 23.4553C62.3223 23.4642 62.6661 23.6091 62.9255 23.8617L64.0903 25.0229L68.5623 29.5369C68.8253 29.7928 69.1749 29.938 69.5402 29.9432L91.7855 29.9432C91.9767 29.9355 92.1676 29.9664 92.3469 30.034C92.5261 30.1017 92.6902 30.2047 92.8295 30.3372C92.9688 30.4697 93.0804 30.6288 93.158 30.8055C93.2355 30.9821 93.2773 31.1726 93.281 31.3657L93.281 57.4916Z" stroke="#9E00FF" stroke-opacity="1.000000" stroke-width="2.000000"/>
		<path id="Vector" d="M91.0234 29.9723L69.08 29.9723L64.2053 25.0519L89.6142 25.0519C89.9856 25.0593 90.3398 25.2116 90.6025 25.4768C90.8652 25.7419 91.0161 26.0994 91.0234 26.4744L91.0234 29.9723Z" stroke="#9E00FF" stroke-opacity="1.000000" stroke-width="2.000000"/>
		<path id="Vector" d="M76.4999 35.3716L69.8278 52.4115" stroke="#9E00FF" stroke-opacity="1.000000" stroke-width="2.000000"/>
		<path id="Vector" d="M66.1754 37.7374L60.783 43.1803L65.8446 48.2894" stroke="#9E00FF" stroke-opacity="1.000000" stroke-width="2.000000"/>
		<path id="Vector" d="M79.2896 48.2894L84.6819 42.8465L79.6203 37.7374" stroke="#9E00FF" stroke-opacity="1.000000" stroke-width="2.000000"/>
		<path id="Vector" d="M26.7031 52.4115L26.7031 62.6442L42.7364 62.6442L42.7364 52.4115" stroke="#9E00FF" stroke-opacity="1.000000" stroke-width="2.000000"/>
		<path id="Vector" d="M47.9418 62.6296C48.1722 62.6296 48.3589 62.8181 48.3589 63.0506L48.3589 66.8533C48.3589 67.0858 48.1722 67.2742 47.9418 67.2742L20.7355 67.2742C20.5052 67.2742 20.3185 67.0858 20.3185 66.8533L20.3185 63.0506C20.3185 62.8181 20.5052 62.6296 20.7355 62.6296L47.9418 62.6296Z" stroke="#9E00FF" stroke-opacity="1.000000" stroke-width="2.000000"/>
		<path id="Vector" d="M39.5472 22.0621C39.1494 22.6526 38.9378 23.3508 38.9402 24.0649L38.9402 28.6224C38.4979 28.3758 38.0066 28.232 37.5022 28.2015L34.6981 28.2015C34.459 28.1793 34.2183 28.1793 33.9792 28.2015C33.6028 28.2782 33.2427 28.4206 32.9151 28.6224L32.9151 24.0069C32.9176 23.541 32.8287 23.0792 32.6535 22.6483C32.4783 22.2173 32.2202 21.8256 31.8941 21.4959C31.5213 21.1115 31.0627 20.8228 30.5568 20.654C30.1328 18.8337 30.1506 16.9369 30.6088 15.125C31.067 13.3131 31.9519 11.6398 33.1883 10.2472L35.259 7.92487C35.3939 7.76051 35.563 7.62819 35.7545 7.53738C35.9459 7.44657 36.1547 7.39954 36.3662 7.39954C36.5776 7.39954 36.7866 7.44657 36.9779 7.53738C37.1693 7.62819 37.3385 7.76051 37.4734 7.92487L39.0264 9.85531C40.2579 11.3466 41.0992 13.1257 41.4735 15.03C41.8478 16.9342 41.7431 18.9028 41.169 20.7556C40.5103 21.0161 39.9449 21.4715 39.5472 22.0621Z" stroke="#9E00FF" stroke-opacity="1.000000" stroke-width="2.000000"/>
		<path id="Vector" d="M32.9725 29.5513C32.9745 29.7196 32.9431 29.8865 32.8802 30.0424C32.8173 30.1982 32.7241 30.3398 32.6062 30.4588C32.4883 30.5778 32.3481 30.6718 32.1937 30.7353C32.0393 30.7988 31.8739 30.8305 31.7072 30.8286L27.2064 30.8286C26.8707 30.8286 26.5489 30.694 26.3116 30.4545C26.0742 30.215 25.9409 29.8901 25.9409 29.5513L25.9409 24.0648C25.9409 23.1217 26.3121 22.2172 26.9728 21.5503C27.6335 20.8834 28.5295 20.5088 29.4639 20.5088C29.8561 20.5089 30.2454 20.5777 30.6143 20.712C31.1203 20.8808 31.5789 21.1695 31.9516 21.5539C32.2776 21.8836 32.5358 22.2753 32.711 22.7062C32.8862 23.1372 32.9751 23.599 32.9725 24.0648L32.9725 29.5513Z" stroke="#9E00FF" stroke-opacity="1.000000" stroke-width="2.000000"/>
		<path id="Vector" d="M45.9719 29.5513C45.9719 29.8901 45.8385 30.215 45.6012 30.4545C45.3639 30.694 45.0421 30.8286 44.7064 30.8286L40.2056 30.8286C40.0389 30.8306 39.8735 30.7988 39.7191 30.7353C39.5647 30.6718 39.4244 30.5778 39.3065 30.4588C39.1887 30.3399 39.0955 30.1982 39.0326 30.0424C38.9697 29.8865 38.9383 29.7196 38.9402 29.5513L38.9402 24.0649C38.9379 23.3507 39.1494 22.6526 39.5472 22.062C39.9449 21.4715 40.5103 21.0161 41.1691 20.7556C41.5765 20.5931 42.0107 20.5093 42.4489 20.5088C42.9115 20.5073 43.3698 20.599 43.7969 20.7785C44.2241 20.9579 44.6115 21.2215 44.9365 21.5539C45.2645 21.8829 45.5248 22.2742 45.7025 22.7051C45.8802 23.136 45.9717 23.5981 45.9719 24.0649L45.9719 29.5513Z" stroke="#9E00FF" stroke-opacity="1.000000" stroke-width="2.000000"/>
		<path id="Vector" d="M40.7664 32.788C40.7692 34.1589 40.4469 35.5106 39.8265 36.7302C39.2061 37.9498 38.3056 39.0018 37.2003 39.7985L37.0708 39.9001C36.7584 40.1258 36.3838 40.2472 35.9996 40.2472C35.6153 40.2472 35.2407 40.1258 34.9283 39.9001L34.7988 39.7985C33.699 39.0008 32.8031 37.9502 32.1855 36.7336C31.5678 35.5171 31.2462 34.1695 31.2471 32.8025L31.2471 31.7285C31.2481 31.4248 31.2867 31.1225 31.3621 30.8286L31.7072 30.8286C31.874 30.8305 32.0393 30.7988 32.1937 30.7353C32.3481 30.6718 32.4884 30.5778 32.6063 30.4588C32.7242 30.3398 32.8173 30.1982 32.8802 30.0423C32.9431 29.8865 32.9745 29.7196 32.9726 29.5513L32.9726 28.6223C33.3003 28.4205 33.6605 28.2781 34.0367 28.2015C34.2759 28.1793 34.5165 28.1793 34.7557 28.2015L37.4879 28.2015C37.9922 28.232 38.4835 28.3757 38.9258 28.6223L38.9258 29.5513C38.9239 29.7196 38.9553 29.8865 39.0182 30.0423C39.0811 30.1982 39.1743 30.3398 39.2922 30.4588C39.41 30.5778 39.5503 30.6718 39.7047 30.7353C39.8591 30.7988 40.0245 30.8305 40.1912 30.8286L40.637 30.8286C40.7172 31.1219 40.7607 31.4242 40.7664 31.7285L40.7664 32.788Z" stroke="#9E00FF" stroke-opacity="1.000000" stroke-width="2.000000"/>
		<path id="Vector" d="M41.0972 13.6436L31.2471 13.6436" stroke="#9E00FF" stroke-opacity="1.000000" stroke-width="2.000000"/>
	</g>
</svg>
