<svg width="35.119003" height="34.000000" viewBox="0 0 35.119 34" fill="none" xmlns="http://www.w3.org/2000/svg" xmlns:xlink="http://www.w3.org/1999/xlink">
	<desc>
			Created with Pixso.
	</desc>
	<defs/>
	<path id="Vector" d="M28.2088 7.07593L5.20155 15.9075C4.48828 16.1807 4.51727 17.2261 5.24444 17.4573L10.8516 19.2446L13.0814 26.2502C13.1304 26.4041 13.2165 26.5425 13.332 26.6526C13.4474 26.7627 13.5882 26.8408 13.7411 26.8796C13.894 26.9187 14.0541 26.9167 14.2062 26.8748C14.3583 26.8328 14.4974 26.7515 14.6106 26.6392L17.7512 23.5137L23.533 27.8672C23.6864 27.9834 23.8659 28.0581 24.055 28.0847C24.244 28.1111 24.4364 28.0884 24.6146 28.0186C24.7928 27.9487 24.9511 27.834 25.0749 27.6851C25.1987 27.5361 25.284 27.3577 25.3231 27.166L29.2488 7.99097C29.2779 7.85034 29.2695 7.7041 29.2246 7.56787C29.1795 7.43164 29.0997 7.3103 28.9933 7.2168C28.8869 7.12305 28.7579 7.06079 28.6198 7.03589C28.4818 7.01123 28.3398 7.0249 28.2088 7.07593ZM24.7221 11.1714L14.2864 20.7686L13.9396 24.4883L12.2383 18.7307L24.3912 10.7251C24.675 10.5391 24.9734 10.9409 24.7221 11.1714Z" fill="#2F2A37" fill-opacity="1.000000" fill-rule="nonzero"/>
	<path id="Vector" d="M21.3817 34L13.5932 34C13.5637 34 13.5342 34 13.5047 34C13.3866 34 13.2686 34 13.121 34C12.9146 34 12.7081 34 12.5016 34C12.2655 34 12.0591 33.9714 11.8524 33.9714C10.6724 33.9429 9.43332 33.8857 8.2237 33.657C6.01106 33.228 4.24094 32.313 2.82484 30.8545C1.40873 29.3677 0.523659 27.4802 0.258141 25.2498C0.140137 24.2776 0.081131 23.248 0.0516281 22.0471C-0.00738525 19.0447 -0.0368729 15.127 0.0811386 11.1523C0.110641 10.2087 0.16964 9.1792 0.346649 8.14966C0.64167 6.5769 1.20222 5.29028 1.99878 4.17505C3.56239 2.03027 5.86356 0.714844 8.81382 0.285889C10.0823 0.114502 11.3214 0.0571289 12.5016 0.0571289C15.6583 0 18.815 0 21.8537 0C23.3584 0 25.04 0 26.7216 0.314453C28.2852 0.600586 29.6128 1.08667 30.7338 1.85864C33.0056 3.37427 34.3922 5.6333 34.8347 8.52148C35.0117 9.75098 35.0412 10.9521 35.0707 12.01C35.1297 15.8132 35.1592 19.731 35.0117 23.6484C34.9527 24.7922 34.8347 25.7644 34.5987 26.6509C33.8905 29.2532 32.3859 31.2263 30.0848 32.5132C28.6687 33.2852 27.0461 33.7427 25.0695 33.8572C24.3024 33.9143 23.5354 33.9143 22.7977 33.9429C22.4437 33.9429 22.0897 33.9714 21.7062 33.9714C21.6472 33.9714 21.5882 33.9714 21.4997 33.9714L21.3817 34ZM13.7997 32.5703L21.3817 32.5703C21.4702 32.5703 21.5587 32.5703 21.6472 32.5415C22.0012 32.5415 22.3847 32.5132 22.7387 32.5132C23.4763 32.4844 24.2139 32.4844 24.9515 32.4272C26.6626 32.313 28.1082 31.9412 29.3177 31.2834C31.2944 30.1968 32.5629 28.5669 33.153 26.3079C33.3596 25.5071 33.4776 24.6206 33.5365 23.5913C33.6841 19.7021 33.6546 15.8132 33.5956 12.0386C33.5956 11.0378 33.566 9.86548 33.3891 8.72168C33.0056 6.20532 31.8549 4.31787 29.9078 3.03101C28.9637 2.4021 27.8427 1.97314 26.4856 1.71582C24.922 1.42969 23.2994 1.42969 21.8537 1.42969C18.815 1.40112 15.6878 1.42969 12.5311 1.42969C11.4099 1.42969 10.2298 1.45825 9.04982 1.62988C6.48309 2.00171 4.56548 3.08838 3.23787 4.91846C2.55933 5.8335 2.11679 6.94873 1.85126 8.32129C1.67426 9.26489 1.61524 10.2087 1.58575 11.095C1.46774 15.0413 1.49725 18.9587 1.55624 21.9329C1.58575 23.0767 1.64475 24.0774 1.76276 24.9924C1.99878 26.9656 2.70683 28.5383 3.94592 29.7964C5.126 31.0261 6.63062 31.7981 8.5482 32.1699C9.63982 32.3701 10.7609 32.4272 11.9411 32.4558C12.177 32.4558 12.3836 32.4558 12.6196 32.4844C12.826 32.4844 13.0031 32.4844 13.2095 32.4844C13.357 32.4844 13.4751 32.4844 13.5932 32.4844C13.6227 32.5415 13.7112 32.5415 13.7997 32.5703Z" fill="#2F2A37" fill-opacity="1.000000" fill-rule="nonzero"/>
</svg>
