<svg width="35.000000" height="33.884766" viewBox="0 0 35 33.8848" fill="none" xmlns="http://www.w3.org/2000/svg" xmlns:xlink="http://www.w3.org/1999/xlink">
	<desc>
			Created with Pixso.
	</desc>
	<defs/>
	<path id="Vector" d="M21.3092 33.8848L13.5471 33.8848C13.5176 33.8848 13.4882 33.8848 13.4588 33.8848C13.3412 33.8848 13.2236 33.8848 13.0766 33.8848C12.8708 33.8848 12.665 33.8848 12.4592 33.8848C12.2239 33.8848 12.0181 33.8562 11.8123 33.8562C10.6362 33.8279 9.40134 33.7708 8.19585 33.5427C5.99069 33.1152 4.22656 32.2034 2.81526 30.75C1.40395 29.2681 0.521885 27.3872 0.257267 25.1643C0.13966 24.1953 0.0808487 23.1694 0.0514488 21.9724C-0.00735474 18.98 -0.036747 15.0757 0.0808601 11.1145C0.110264 10.1741 0.169056 9.14795 0.34547 8.12207C0.639492 6.55469 1.19814 5.27222 1.992 4.16089C3.55032 2.02344 5.84368 0.712402 8.78389 0.284912C10.0482 0.114014 11.2831 0.0568848 12.4592 0.0568848C15.6052 0 18.7512 0 21.7797 0C23.2792 0 24.9551 0 26.631 0.313477C28.1893 0.598389 29.5124 1.08301 30.6297 1.85229C32.8937 3.36279 34.2756 5.61426 34.7166 8.49268C34.893 9.71802 34.9224 10.915 34.9518 11.9695C35.0106 15.7598 35.04 19.6641 34.893 23.5684C34.8342 24.7083 34.7166 25.6772 34.4814 26.5608C33.7757 29.1541 32.2762 31.1204 29.9829 32.4028C28.5716 33.1724 26.9544 33.6284 24.9845 33.7424C24.22 33.7993 23.4556 33.7993 22.7205 33.8279C22.3677 33.8279 22.0149 33.8562 21.6326 33.8562C21.5738 33.8562 21.515 33.8562 21.4268 33.8562L21.3092 33.8848ZM13.7529 32.46L21.3092 32.46C21.3974 32.46 21.4856 32.46 21.5738 32.4314C21.9267 32.4314 22.3089 32.4028 22.6617 32.4028C23.3968 32.3743 24.1318 32.3743 24.8669 32.3174C26.5722 32.2034 28.0129 31.833 29.2184 31.1775C31.1883 30.0945 32.4526 28.47 33.0407 26.2188C33.2465 25.4207 33.3641 24.5374 33.4229 23.5112C33.5699 19.6355 33.5405 15.7598 33.4817 11.9978C33.4817 11.0005 33.4523 9.83203 33.2759 8.69214C32.8937 6.18408 31.747 4.30322 29.8064 3.02075C28.8656 2.3938 27.7483 1.96631 26.3958 1.70996C24.8375 1.42505 23.2204 1.42505 21.7797 1.42505C18.7512 1.39648 15.6346 1.42505 12.4886 1.42505C11.3713 1.42505 10.1952 1.45337 9.01911 1.62451C6.46112 1.99487 4.55 3.07788 3.2269 4.90186C2.55065 5.81372 2.10961 6.92505 1.84499 8.29297C1.66858 9.23364 1.60977 10.1741 1.58036 11.0574C1.46276 14.9902 1.49216 18.8945 1.55097 21.8584C1.58037 22.9983 1.63918 23.9958 1.75679 24.9077C1.992 26.8743 2.69765 28.4417 3.93254 29.6956C5.10862 30.9209 6.60815 31.6904 8.51929 32.0608C9.60717 32.2605 10.7244 32.3174 11.9005 32.3459C12.1357 32.3459 12.3416 32.3459 12.5768 32.3743C12.7826 32.3743 12.959 32.3743 13.1648 32.3743C13.3118 32.3743 13.4294 32.3743 13.5471 32.3743C13.5765 32.4314 13.6647 32.4314 13.7529 32.46Z" fill="#2F2A37" fill-opacity="1.000000" fill-rule="nonzero"/>
	<path id="Vector" d="M19.398 13.6509C19.398 14.4204 19.398 15.2183 19.398 15.9878C19.398 16.1587 19.4274 16.3013 19.4862 16.4722C19.5744 16.7288 19.7508 16.8142 20.0155 16.7002C20.1625 16.6431 20.3095 16.5576 20.4565 16.4436C21.0445 15.9878 21.515 15.3892 21.9266 14.7622C22.7205 13.6509 23.3673 12.4541 23.9259 11.2002C24.1612 10.6587 24.5434 10.4307 25.1314 10.4307C25.8959 10.4307 26.6603 10.4307 27.4542 10.4307C27.6012 10.4307 27.7482 10.4307 27.8658 10.4875C28.1599 10.5732 28.3068 10.7441 28.2774 11.0291C28.248 11.2856 28.1599 11.542 28.0716 11.77C27.7188 12.5964 27.2484 13.3945 26.7191 14.1353C26.1605 14.9902 25.5725 15.8167 24.9844 16.6716C24.9256 16.7856 24.8374 16.8711 24.7786 16.9851C24.6316 17.2131 24.661 17.4412 24.808 17.6692C24.8962 17.8115 25.0138 17.9255 25.1314 18.0396C26.0723 18.98 27.0426 19.949 27.8658 21.0034C28.1304 21.3452 28.3657 21.7441 28.6009 22.1147C28.6597 22.2288 28.6891 22.3711 28.7185 22.5137C28.8067 22.9412 28.6009 23.2261 28.1599 23.3115C28.0422 23.3401 27.9246 23.3401 27.7776 23.3401C26.9838 23.3401 26.2193 23.3401 25.4255 23.3401C25.0432 23.3401 24.6904 23.2261 24.4258 22.9697C23.9847 22.5422 23.5731 22.1147 23.1615 21.6587C22.5734 21.0317 21.9266 20.4333 21.2209 19.949C21.0151 19.8064 20.8093 19.6924 20.5741 19.5784C20.3683 19.4644 20.1331 19.436 19.8978 19.4644C19.6332 19.4929 19.5156 19.5784 19.4862 19.835C19.4568 19.9204 19.4568 20.0344 19.4568 20.1484C19.4568 20.8608 19.4568 21.6018 19.4568 22.3142C19.4568 22.9697 19.251 23.1978 18.5748 23.3115C17.3105 23.4827 16.0756 23.2832 14.8995 22.7986C13.1648 22.0862 11.7535 20.9749 10.6068 19.5215C9.10728 17.6121 7.84299 15.5603 6.93152 13.3088C6.6669 12.6819 6.46109 12.0266 6.34348 11.3425C6.31408 11.2571 6.31409 11.1431 6.31409 11.0576C6.31409 10.7441 6.49049 10.5447 6.81391 10.4875C6.93152 10.4592 7.07854 10.4592 7.19615 10.4592C7.96061 10.4592 8.75445 10.4592 9.51891 10.4592C10.1363 10.4592 10.401 10.6301 10.6068 11.1716C10.842 11.7131 11.0478 12.283 11.283 12.8245C11.8417 14.1353 12.5179 15.3892 13.3706 16.5293C13.6352 16.8711 13.9292 17.1846 14.2527 17.4695C14.3703 17.5835 14.5467 17.6692 14.7231 17.6975C14.9583 17.7546 15.1053 17.6692 15.1641 17.4412C15.1935 17.2986 15.2229 17.156 15.2229 16.9851C15.2229 15.7598 15.2229 14.5344 15.2229 13.3088C15.2229 12.6819 15.0171 12.1121 14.6055 11.6277C14.5173 11.542 14.4585 11.4565 14.3997 11.3425C14.2527 11.1431 14.1938 10.9436 14.3114 10.7441C14.4291 10.5161 14.6349 10.4307 14.8701 10.4307C15.0171 10.4307 15.1641 10.4307 15.3111 10.4307C16.4284 10.4307 17.5457 10.4307 18.663 10.4307C19.1922 10.4307 19.398 10.6016 19.398 11.1145C19.398 11.998 19.398 12.8245 19.398 13.6509Z" fill="#2F2A37" fill-opacity="1.000000" fill-rule="nonzero"/>
</svg>
