<svg width="95.000000" height="71.250000" viewBox="0 0 95 71.25" fill="none" xmlns="http://www.w3.org/2000/svg" xmlns:xlink="http://www.w3.org/1999/xlink">
	<desc>
			Created with Pixso.
	</desc>
	<defs>
		<clipPath id="clip81_58">
			<rect id="Frame" width="95.000000" height="71.250000" fill="white" fill-opacity="0"/>
		</clipPath>
	</defs>
	<rect id="Frame" width="95.000000" height="71.250000" fill="#FFFFFF" fill-opacity="0"/>
	<g clip-path="url(#clip81_58)">
		<path id="Vector" d="M47.5684 26.0302C40.6798 26.0302 35.0956 20.4225 35.0956 13.5051C35.0956 6.58765 40.6798 0.97998 47.5684 0.97998C54.4569 0.97998 60.0411 6.58765 60.0411 13.5051C60.0411 20.4225 54.4569 26.0302 47.5684 26.0302Z" stroke="#2F2A37" stroke-opacity="1.000000" stroke-width="2.000000"/>
		<path id="Vector" d="M9.36926 47.7679L9.36926 35.7524C9.36926 35.4821 9.47614 35.2229 9.6665 35.0318C9.85687 34.8406 10.1151 34.7332 10.3842 34.7332L85.2404 34.7332C85.5096 34.7332 85.7678 34.8406 85.9581 35.0318C86.1485 35.2229 86.2554 35.4821 86.2554 35.7524L86.2554 47.7679" stroke="#2F2A37" stroke-opacity="1.000000" stroke-width="2.000000"/>
		<path id="Vector" d="M47.5684 26.0303L47.5684 34.7332" stroke="#2F2A37" stroke-opacity="1.000000" stroke-width="2.000000"/>
		<path id="Vector" d="M35.0956 47.7679L35.0956 34.7332" stroke="#2F2A37" stroke-opacity="1.000000" stroke-width="2.000000"/>
		<path id="Vector" d="M61.3098 34.7332L61.3098 47.7679" stroke="#2F2A37" stroke-opacity="1.000000" stroke-width="2.000000"/>
		<path id="Vector" d="M15.4982 47.7678C16.0588 47.7678 16.5132 48.2242 16.5132 48.7871L16.5132 59.7833C16.5132 60.3462 16.0588 60.8026 15.4982 60.8026L1.99097 60.8026C1.43036 60.8026 0.975952 60.3462 0.975952 59.7833L0.975952 48.7871C0.975952 48.2242 1.43036 47.7678 1.99097 47.7678L15.4982 47.7678Z" stroke="#2F2A37" stroke-opacity="1.000000" stroke-width="2.000000"/>
		<path id="Vector" d="M41.8492 47.7678C42.4098 47.7678 42.8642 48.2242 42.8642 48.7871L42.8642 59.7833C42.8642 60.3462 42.4098 60.8026 41.8492 60.8026L28.3419 60.8026C27.7813 60.8026 27.3269 60.3462 27.3269 59.7833L27.3269 48.7871C27.3269 48.2242 27.7813 47.7678 28.3419 47.7678L41.8492 47.7678Z" stroke="#2F2A37" stroke-opacity="1.000000" stroke-width="2.000000"/>
		<path id="Vector" d="M68.0635 47.7678C68.6241 47.7678 69.0785 48.2242 69.0785 48.7871L69.0785 59.7833C69.0785 60.3462 68.6241 60.8026 68.0635 60.8026L54.5562 60.8026C53.9956 60.8026 53.5412 60.3462 53.5412 59.7833L53.5412 48.7871C53.5412 48.2242 53.9956 47.7678 54.5562 47.7678L68.0635 47.7678Z" stroke="#2F2A37" stroke-opacity="1.000000" stroke-width="2.000000"/>
		<path id="Vector" d="M93.0286 47.7678C93.5892 47.7678 94.0436 48.2242 94.0436 48.7871L94.0436 59.7833C94.0436 60.3462 93.5892 60.8026 93.0286 60.8026L79.5213 60.8026C78.9607 60.8026 78.5063 60.3462 78.5063 59.7833L78.5063 48.7871C78.5063 48.2242 78.9607 47.7678 79.5213 47.7678L93.0286 47.7678Z" stroke="#2F2A37" stroke-opacity="1.000000" stroke-width="2.000000"/>
		<path id="Vector" d="M35.0956 60.8025L35.0956 68.0942C35.0956 68.6678 35.3212 69.2183 35.7233 69.6257C36.1254 70.0332 36.6714 70.2647 37.2427 70.2699L59.1432 70.2699C59.7179 70.2699 60.269 70.0407 60.6753 69.6327C61.0816 69.2246 61.3099 68.6712 61.3099 68.0942L61.3099 60.8025" stroke="#2F2A37" stroke-opacity="1.000000" stroke-width="2.000000" stroke-dasharray="2 2"/>
	</g>
</svg>
