<svg width="89.047623" height="66.000000" viewBox="0 0 89.0476 66" fill="none" xmlns="http://www.w3.org/2000/svg" xmlns:xlink="http://www.w3.org/1999/xlink">
	<desc>
			Created with Pixso.
	</desc>
	<defs>
		<clipPath id="clip80_4194">
			<rect id="Frame" width="89.047623" height="66.000000" fill="white" fill-opacity="0"/>
		</clipPath>
	</defs>
	<rect id="Frame" width="89.047623" height="66.000000" fill="#FFFFFF" fill-opacity="0"/>
	<g clip-path="url(#clip80_4194)">
		<path id="Vector" d="M45.4808 47.4503C45.4788 47.6015 45.5071 47.7516 45.564 47.8919C45.6208 48.0321 45.7051 48.1597 45.8119 48.2673C45.9187 48.3749 46.046 48.4603 46.1863 48.5186C46.3266 48.5769 46.4772 48.6069 46.6292 48.6069L55.8461 48.6069L55.8461 55.3855C55.846 55.4552 55.8666 55.5233 55.9054 55.5812C55.9442 55.6392 55.9995 55.6843 56.0641 55.711C56.1288 55.7376 56.2 55.7446 56.2686 55.731C56.3373 55.7174 56.4003 55.6838 56.4498 55.6345L63.5318 48.6069L67.9488 48.6069L67.9488 61.7835C67.9488 62.6921 67.5858 63.5635 66.9397 64.206C66.2936 64.8485 65.4173 65.2094 64.5035 65.2094L4.13722 65.2094C3.22076 65.2056 2.343 64.8418 1.69496 64.1974C1.04692 63.553 0.681122 62.6802 0.677246 61.7689L0.677246 9.06262L67.8899 9.06262L67.8899 17.847L46.5703 17.847C46.4181 17.8545 46.2689 17.8919 46.1315 17.9573C45.994 18.0226 45.871 18.1145 45.7696 18.2276C45.6682 18.3407 45.5904 18.4728 45.5408 18.616C45.4912 18.7593 45.4708 18.9109 45.4808 19.0621L45.4808 47.4503Z" stroke="#0038FF" stroke-opacity="1.000000" stroke-width="2.000000"/>
		<path id="Vector" d="M67.9489 9.13578L0.736206 9.13578L0.736206 4.15792C0.740097 3.24797 1.10637 2.37665 1.75482 1.73459C2.40329 1.09252 3.28117 0.732059 4.19627 0.732066L64.43 0.732066C64.8881 0.724308 65.3431 0.80706 65.7688 0.975571C66.1944 1.14408 66.5822 1.39497 66.9095 1.71368C67.2369 2.03239 67.4973 2.41251 67.6758 2.8321C67.8542 3.25169 67.9471 3.70237 67.9489 4.15792L67.9489 9.13578Z" stroke="#0038FF" stroke-opacity="1.000000" stroke-width="2.000000"/>
		<path id="Vector" d="M20.7012 9.13574L20.7012 65.268" stroke="#0038FF" stroke-opacity="1.000000" stroke-width="2.000000"/>
		<path id="Vector" d="M8 4.5C8 5.32843 7.32843 6 6.5 6C5.67157 6 5 5.32843 5 4.5C5 3.67157 5.67157 3 6.5 3C7.32843 3 8 3.67157 8 4.5Z" fill="#0038FF" fill-opacity="1.000000" fill-rule="evenodd"/>
		<path id="Vector" d="M14 4.5C14 5.32843 13.3284 6 12.5 6C11.6716 6 11 5.32843 11 4.5C11 3.67157 11.6716 3 12.5 3C13.3284 3 14 3.67157 14 4.5Z" fill="#0038FF" fill-opacity="1.000000" fill-rule="evenodd"/>
		<path id="Vector" d="M20 4.5C20 5.32843 19.3284 6 18.5 6C17.6716 6 17 5.32843 17 4.5C17 3.67157 17.6716 3 18.5 3C19.3284 3 20 3.67157 20 4.5Z" fill="#0038FF" fill-opacity="1.000000" fill-rule="evenodd"/>
		<path id="Vector" d="M88.3115 47.4503C88.3115 47.7571 88.1889 48.0512 87.9708 48.2681C87.7527 48.485 87.4568 48.6069 87.1483 48.6069L63.5907 48.6069L56.5087 55.6345C56.4593 55.6838 56.3963 55.7173 56.3276 55.731C56.2589 55.7446 56.1878 55.7376 56.1231 55.711C56.0584 55.6843 56.0032 55.6391 55.9643 55.5812C55.9255 55.5233 55.9049 55.4551 55.9051 55.3855L55.9051 48.6069L46.6882 48.6069C46.5361 48.6069 46.3856 48.5769 46.2453 48.5186C46.1049 48.4603 45.9777 48.3749 45.8709 48.2673C45.764 48.1597 45.6797 48.0321 45.6229 47.8918C45.5661 47.7516 45.5378 47.6015 45.5398 47.4503L45.5398 19.0621C45.5398 18.7592 45.6608 18.4688 45.8761 18.2546C46.0915 18.0405 46.3836 17.9202 46.6882 17.9202L87.2072 17.9202C87.5041 17.9315 87.785 18.0568 87.9909 18.2697C88.1968 18.4827 88.3117 18.7667 88.3115 19.0621L88.3115 47.4503Z" stroke="#0038FF" stroke-opacity="1.000000" stroke-width="2.000000"/>
		<path id="Vector" d="M61.8091 30.9943C62.972 30.9943 63.9146 31.9316 63.9146 33.0879L63.9146 41.3159C63.9146 42.4722 62.972 43.4095 61.8091 43.4095L61.7944 43.4095C60.6316 43.4095 59.689 42.4722 59.689 41.3159L59.689 33.0879C59.689 31.9316 60.6316 30.9943 61.7944 30.9943L61.8091 30.9943Z" stroke="#0038FF" stroke-opacity="1.000000" stroke-width="2.000000"/>
		<path id="Vector" d="M63.9147 41.3013L73.2641 41.3013C74.188 41.3039 75.0878 41.0085 75.8284 40.4594C76.5691 39.9103 77.1107 39.1372 77.372 38.256L77.902 36.4699C78.0923 35.834 78.1306 35.1627 78.0139 34.5094C77.8972 33.8562 77.6286 33.239 77.2297 32.7072C76.8307 32.1754 76.3123 31.7437 75.7159 31.4463C75.1194 31.1489 74.4613 30.9941 73.7941 30.9943L71.9537 30.9943C71.9273 30.9944 71.9011 30.989 71.8769 30.9786C71.8527 30.9681 71.8308 30.9527 71.8129 30.9334C71.7949 30.9142 71.7811 30.8915 71.7724 30.8667C71.7637 30.8419 71.7603 30.8155 71.7623 30.7893C71.7623 29.8377 71.939 25.709 69.7157 24.4207C69.5602 24.3317 69.3818 24.2903 69.2028 24.3016C69.0238 24.3129 68.8521 24.3764 68.7092 24.4842C68.5662 24.592 68.4584 24.7392 68.3991 24.9076C68.3398 25.0759 68.3318 25.258 68.3759 25.4309C68.9059 27.993 69.3329 33.1611 63.9588 33.1025" stroke="#0038FF" stroke-opacity="1.000000" stroke-width="2.000000"/>
	</g>
</svg>
