<svg width="67.000000" height="67.000000" viewBox="0 0 67 67" fill="none" xmlns="http://www.w3.org/2000/svg" xmlns:xlink="http://www.w3.org/1999/xlink">
	<desc>
			Created with Pixso.
	</desc>
	<defs>
		<clipPath id="clip79_4179">
			<rect id="Frame" width="67.000000" height="67.000000" fill="white" fill-opacity="0"/>
		</clipPath>
	</defs>
	<rect id="Frame" width="67.000000" height="67.000000" fill="#FFFFFF" fill-opacity="0"/>
	<g clip-path="url(#clip79_4179)">
		<path id="Vector" d="M55.0333 55.0505L39.4056 39.4056L27.6116 27.6288L13.3137 13.3136L19.2021 7.42517L33.5173 21.7404L45.2941 33.5173L60.1446 48.3677C60.4185 48.6322 60.6358 48.9493 60.7835 49.3002L55.0333 55.0505Z" stroke="#6E6C72" stroke-opacity="1.000000" stroke-width="2.000000"/>
		<path id="Vector" d="M49.3003 60.8009C48.9528 60.647 48.6367 60.4304 48.3678 60.162L33.5173 45.3114L6.9245 18.7359C6.14813 17.9626 5.5321 17.0436 5.11176 16.0316C4.69141 15.0196 4.47504 13.9346 4.47504 12.8388C4.47504 11.743 4.69141 10.658 5.11176 9.64608C5.5321 8.63412 6.14813 7.71514 6.9245 6.94184C7.69684 6.16761 8.61481 5.55386 9.62543 5.13598C10.636 4.71811 11.7193 4.5043 12.8129 4.50698C13.9065 4.5043 14.9898 4.71811 16.0004 5.13598C17.011 5.55386 17.929 6.16761 18.7014 6.94184L19.1848 7.42529L13.2964 13.3137L27.5944 27.6289L39.3884 39.4057L55.0333 55.0506L49.3003 60.8009Z" stroke="#6E6C72" stroke-opacity="1.000000" stroke-width="2.000000"/>
		<path id="Vector" d="M62.4623 61.8182C62.4111 61.9676 62.3265 62.1032 62.2149 62.2148C62.1033 62.3265 61.9677 62.4111 61.8183 62.4623C61.669 62.5135 61.5099 62.5299 61.3533 62.5103L50.2327 61.077C49.9086 61.038 49.5933 60.9447 49.3002 60.8007L55.0333 55.0505L60.7835 49.3002C60.9328 49.5985 61.032 49.9195 61.077 50.25L62.5103 61.3533C62.53 61.51 62.5135 61.6689 62.4623 61.8182Z" stroke="#6E6C72" stroke-opacity="1.000000" stroke-width="2.000000"/>
		<path id="Vector" d="M60.9389 49.1449L60.7835 49.3003" stroke="#6E6C72" stroke-opacity="1.000000" stroke-width="2.000000"/>
		<path id="Vector" d="M49.3002 60.8008L49.1448 60.9389" stroke="#6E6C72" stroke-opacity="1.000000" stroke-width="2.000000"/>
		<path id="Vector" d="M13.3137 13.3137L7.42523 19.2021" stroke="#6E6C72" stroke-opacity="1.000000" stroke-width="2.000000"/>
		<path id="Vector" d="M12.9855 65.8258C12.7728 66.0325 12.4879 66.1482 12.1912 66.1482C11.8946 66.1482 11.6096 66.0325 11.3969 65.8258L1.20874 55.6377C1.10175 55.5331 1.01666 55.4082 0.958618 55.2703C0.900513 55.1324 0.870605 54.9843 0.870605 54.8347C0.870605 54.6851 0.900513 54.537 0.958618 54.3991C1.01666 54.2612 1.10175 54.1363 1.20874 54.0318L3.36725 51.8905L8.70306 46.5374L14.0562 41.1843L21.7232 33.5173L33.5173 45.3113L12.9855 65.8258Z" stroke="#6E6C72" stroke-opacity="1.000000" stroke-width="2.000000"/>
		<path id="Vector" d="M45.2941 33.4827L33.5173 21.7059L40.8217 14.3842L46.1747 9.03119L54.0317 1.17414C54.1348 1.06761 54.2582 0.982947 54.3947 0.925092C54.5311 0.867235 54.6779 0.837402 54.826 0.837402C54.9742 0.837402 55.121 0.867235 55.2574 0.925092C55.3939 0.982947 55.5173 1.06761 55.6204 1.17414L65.8085 11.3623C65.921 11.4673 66.0106 11.5943 66.0718 11.7354C66.1331 11.8765 66.1647 12.0287 66.1647 12.1825C66.1647 12.3363 66.1331 12.4886 66.0718 12.6297C66.0106 12.7708 65.921 12.8978 65.8085 13.0028L45.2941 33.4827Z" stroke="#6E6C72" stroke-opacity="1.000000" stroke-width="2.000000"/>
		<path id="Vector" d="M51.5106 3.71265L56.3111 8.51316" stroke="#6E6C72" stroke-opacity="1.000000" stroke-width="2.000000"/>
		<path id="Vector" d="M46.1575 9.06567L53.1683 16.0592" stroke="#6E6C72" stroke-opacity="1.000000" stroke-width="2.000000"/>
		<path id="Vector" d="M40.8044 14.4188L45.6049 19.2193" stroke="#6E6C72" stroke-opacity="1.000000" stroke-width="2.000000"/>
		<path id="Vector" d="M14.0562 41.167L21.067 48.1778" stroke="#6E6C72" stroke-opacity="1.000000" stroke-width="2.000000"/>
		<path id="Vector" d="M8.70306 46.5201L13.5036 51.3207" stroke="#6E6C72" stroke-opacity="1.000000" stroke-width="2.000000"/>
		<path id="Vector" d="M3.34998 51.8732L10.3608 58.884" stroke="#6E6C72" stroke-opacity="1.000000" stroke-width="2.000000"/>
	</g>
</svg>
